<svg width="143" height="143" viewBox="0 0 143 143" fill="none" xmlns="http://www.w3.org/2000/svg">
<mask id="mask0_3_142" style="mask-type:luminance" maskUnits="userSpaceOnUse" x="4" y="4" width="135" height="135">
<path d="M4.37853 4.37891H138.656V138.656H4.37853V4.37891Z" fill="white"/>
</mask>
<g mask="url(#mask0_3_142)">
<path d="M4.37853 4.37891H138.656V138.656H4.37853V4.37891Z" fill="#FFD600"/>
</g>
<path d="M92.1736 104.888C94.7547 109.081 97.5596 113.098 103.501 113.098C108.492 113.098 111.11 110.618 111.11 107.186C111.11 103.079 108.402 101.621 102.912 99.23L99.902 97.9468C91.2147 94.2619 85.4374 89.6442 85.4374 79.8904C85.4374 70.9011 92.3189 64.0606 103.072 64.0606C110.73 64.0606 116.232 66.7124 120.2 73.6576L110.823 79.6517C108.761 75.9665 106.53 74.5156 103.072 74.5156C99.5437 74.5156 97.3097 76.7422 97.3097 79.6517C97.3097 83.2472 99.5474 84.7021 104.713 86.9287L107.723 88.212C117.962 92.572 123.736 97.0255 123.736 107.037C123.736 117.824 115.217 123.736 103.781 123.736C92.5948 123.736 86.2429 118.122 82.707 111.173L92.1736 104.888ZM48.9586 105.194C50.8459 108.573 53.7144 111.173 57.8395 111.173C61.7858 111.173 64.0574 109.614 64.0574 103.553V64.0569H76.4891V105.463C76.4891 118.021 69.2046 123.736 58.5668 123.736C48.9549 123.736 42.0171 117.223 39.1899 111.173L48.9586 105.194Z" fill="#000001"/>
</svg>
