<svg width="144" height="144" viewBox="0 0 144 144" fill="none" xmlns="http://www.w3.org/2000/svg">
<path d="M84.0543 71.8968C84.0543 72.094 84.0494 72.2916 84.0397 72.4885C84.0299 72.6858 84.0157 72.8826 83.9962 73.0791C83.9771 73.2756 83.9527 73.4718 83.9238 73.6668C83.8949 73.8621 83.8612 74.0568 83.8226 74.2503C83.7839 74.4441 83.7408 74.6365 83.6928 74.8281C83.6448 75.0198 83.5923 75.2099 83.5349 75.3989C83.4776 75.5879 83.4157 75.775 83.3493 75.961C83.2826 76.147 83.2117 76.3311 83.1363 76.5134C83.0606 76.696 82.9807 76.8764 82.8963 77.0549C82.8119 77.2334 82.7231 77.4096 82.6301 77.5836C82.5371 77.758 82.4399 77.9298 82.3383 78.0989C82.2367 78.2684 82.1313 78.4353 82.0214 78.5991C81.9119 78.7634 81.7983 78.9246 81.6806 79.0833C81.5632 79.2419 81.4417 79.3975 81.3164 79.5501C81.1912 79.7028 81.0622 79.8524 80.9298 79.9986C80.7971 80.1449 80.6613 80.2878 80.5214 80.4273C80.3819 80.5671 80.2391 80.7033 80.0928 80.8356C79.9466 80.9684 79.7969 81.0974 79.6447 81.2226C79.4921 81.3479 79.3364 81.469 79.1778 81.5868C79.0192 81.7045 78.8579 81.8181 78.6937 81.9276C78.5298 82.0375 78.3629 82.1429 78.1934 82.2445C78.0243 82.3461 77.8526 82.4433 77.6786 82.5363C77.5046 82.6296 77.3283 82.7181 77.1498 82.8025C76.9713 82.8873 76.7909 82.9671 76.6087 83.0425C76.4261 83.1183 76.2419 83.1891 76.0563 83.2559C75.8703 83.3223 75.6828 83.3841 75.4942 83.4415C75.3052 83.4989 75.1151 83.5514 74.9234 83.5994C74.7318 83.6474 74.5394 83.6905 74.3459 83.7291C74.1521 83.7678 73.9578 83.8015 73.7624 83.8304C73.5674 83.8593 73.3713 83.8836 73.1748 83.9028C72.9787 83.9223 72.7818 83.9369 72.5846 83.9463C72.3873 83.956 72.1901 83.9609 71.9928 83.9609C71.7952 83.9609 71.5979 83.956 71.4011 83.9463C71.2038 83.9369 71.0069 83.9223 70.8104 83.9028C70.6139 83.8836 70.4182 83.8593 70.2228 83.8304C70.0278 83.8015 69.8332 83.7678 69.6397 83.7291C69.4462 83.6905 69.2534 83.6474 69.0622 83.5994C68.8706 83.5514 68.6804 83.4989 68.4914 83.4415C68.3024 83.3841 68.1153 83.3223 67.9293 83.2559C67.7433 83.1891 67.5592 83.1183 67.3769 83.0425C67.1947 82.9671 67.0143 82.8873 66.8358 82.8025C66.6573 82.7181 66.4811 82.6296 66.3071 82.5363C66.1331 82.4433 65.9613 82.3461 65.7918 82.2445C65.6227 82.1429 65.4558 82.0375 65.2916 81.9276C65.1277 81.8181 64.9661 81.7045 64.8078 81.5868C64.6492 81.469 64.4936 81.3479 64.3409 81.2226C64.1883 81.0974 64.0391 80.9684 63.8928 80.8356C63.7466 80.7033 63.6037 80.5671 63.4638 80.4273C63.3243 80.2878 63.1882 80.1449 63.0558 79.9986C62.9231 79.8524 62.7944 79.7028 62.6692 79.5501C62.5439 79.3975 62.4224 79.2419 62.3047 79.0833C62.1873 78.9246 62.0737 78.7634 61.9638 78.5991C61.8543 78.4353 61.7486 78.2684 61.6473 78.0989C61.5457 77.9298 61.4486 77.758 61.3556 77.5836C61.2622 77.4096 61.1737 77.2334 61.0893 77.0549C61.0049 76.8764 60.9247 76.696 60.8493 76.5134C60.7739 76.3311 60.7027 76.147 60.6363 75.961C60.5696 75.775 60.5077 75.5879 60.4507 75.3989C60.3933 75.2099 60.3404 75.0198 60.2928 74.8281C60.2448 74.6365 60.2013 74.4441 60.1631 74.2503C60.1244 74.0568 60.0907 73.8621 60.0618 73.6668C60.0329 73.4718 60.0086 73.2756 59.9894 73.0791C59.9699 72.8826 59.9553 72.6858 59.9456 72.4885C59.9362 72.2916 59.9313 72.094 59.9313 71.8968C59.9313 71.6991 59.9362 71.5019 59.9456 71.3046C59.9553 71.1074 59.9699 70.9109 59.9894 70.7144C60.0086 70.5179 60.0329 70.3218 60.0618 70.1264C60.0907 69.9314 60.1244 69.7368 60.1631 69.5433C60.2013 69.3494 60.2448 69.157 60.2928 68.9654C60.3404 68.7738 60.3933 68.5836 60.4507 68.3946C60.5077 68.2056 60.5696 68.0181 60.6363 67.8325C60.7027 67.6465 60.7739 67.4624 60.8493 67.2798C60.9247 67.0975 61.0049 66.9171 61.0893 66.7386C61.1737 66.5601 61.2622 66.3839 61.3556 66.2095C61.4486 66.0355 61.5457 65.8638 61.6473 65.6943C61.7486 65.5251 61.8543 65.3583 61.9638 65.194C62.0737 65.0301 62.1873 64.8685 62.3047 64.7099C62.4224 64.5516 62.5439 64.396 62.6692 64.2434C62.7944 64.0908 62.9231 63.9411 63.0558 63.7949C63.1882 63.6486 63.3243 63.5058 63.4638 63.3659C63.6037 63.2264 63.7466 63.0903 63.8928 62.9579C64.0391 62.8251 64.1883 62.6961 64.3409 62.5709C64.4936 62.4456 64.6492 62.3241 64.8078 62.2068C64.9661 62.089 65.1277 61.9754 65.2916 61.8655C65.4558 61.756 65.6227 61.6503 65.7918 61.549C65.9613 61.4474 66.1331 61.3503 66.3071 61.2569C66.4811 61.1639 66.6573 61.075 66.8358 60.9906C67.0143 60.9063 67.1947 60.8264 67.3769 60.7506C67.5592 60.6753 67.7433 60.6044 67.9293 60.5376C68.1153 60.4713 68.3024 60.4094 68.4914 60.352C68.6804 60.2946 68.8706 60.2421 69.0622 60.1941C69.2534 60.1461 69.4462 60.1026 69.6397 60.0644C69.8332 60.0258 70.0278 59.992 70.2228 59.9631C70.4182 59.9343 70.6139 59.9099 70.8104 59.8904C71.0069 59.8713 71.2038 59.8566 71.4011 59.8469C71.5979 59.8371 71.7952 59.8326 71.9928 59.8326C72.1901 59.8326 72.3873 59.8371 72.5846 59.8469C72.7818 59.8566 72.9787 59.8713 73.1748 59.8904C73.3713 59.9099 73.5674 59.9343 73.7624 59.9631C73.9578 59.992 74.1521 60.0258 74.3459 60.0644C74.5394 60.1026 74.7318 60.1461 74.9234 60.1941C75.1151 60.2421 75.3052 60.2946 75.4942 60.352C75.6828 60.4094 75.8703 60.4713 76.0563 60.5376C76.2419 60.6044 76.4261 60.6753 76.6087 60.7506C76.7909 60.8264 76.9713 60.9063 77.1498 60.9906C77.3283 61.075 77.5046 61.1639 77.6786 61.2569C77.8526 61.3499 78.0243 61.4474 78.1934 61.549C78.3629 61.6503 78.5298 61.756 78.6937 61.8655C78.8579 61.9754 79.0192 62.089 79.1778 62.2068C79.3364 62.3241 79.4921 62.4456 79.6447 62.5709C79.7969 62.6961 79.9466 62.8251 80.0928 62.9575C80.2391 63.0903 80.3819 63.2264 80.5214 63.3659C80.6613 63.5058 80.7971 63.6486 80.9298 63.7949C81.0622 63.9411 81.1912 64.0908 81.3164 64.2434C81.4417 64.396 81.5632 64.5516 81.6806 64.7099C81.7983 64.8685 81.9119 65.0301 82.0214 65.194C82.1313 65.3583 82.2367 65.5251 82.3383 65.6946C82.4399 65.8638 82.5371 66.0355 82.6301 66.2095C82.7231 66.3839 82.8119 66.5601 82.8963 66.7386C82.9807 66.9171 83.0606 67.0975 83.1363 67.2798C83.2117 67.4624 83.2826 67.6465 83.3493 67.8325C83.4157 68.0181 83.4776 68.2056 83.5349 68.3946C83.5923 68.5836 83.6448 68.7738 83.6928 68.9654C83.7408 69.157 83.7839 69.3494 83.8226 69.5433C83.8612 69.7368 83.8949 69.9314 83.9238 70.1264C83.9527 70.3218 83.9771 70.5179 83.9962 70.7144C84.0157 70.9109 84.0299 71.1074 84.0397 71.3046C84.0494 71.5019 84.0543 71.6991 84.0543 71.8968Z" fill="#00D8FF"/>
<mask id="mask0_3_150" style="mask-type:luminance" maskUnits="userSpaceOnUse" x="4" y="14" width="136" height="116">
<path d="M4.45624 14.6892H139.528V129.409H4.45624V14.6892Z" fill="white"/>
</mask>
<g mask="url(#mask0_3_150)">
<path d="M71.9931 47.3666C88.1875 47.3666 103.232 49.6908 114.575 53.5968C128.242 58.3031 136.645 65.4363 136.645 71.8957C136.645 78.6266 127.74 86.205 113.063 91.0687C101.968 94.746 87.3662 96.6652 71.9931 96.6652C56.2322 96.6652 41.3076 94.8637 30.0865 91.0286C15.8905 86.175 7.33975 78.4987 7.33975 71.8957C7.33975 65.4888 15.3629 58.4103 28.8378 53.7112C40.2231 49.7411 55.6382 47.3666 71.992 47.3666H71.9931Z" stroke="#00D8FF" stroke-width="7.47646"/>
</g>
<mask id="mask1_3_150" style="mask-type:luminance" maskUnits="userSpaceOnUse" x="4" y="8" width="136" height="128">
<path d="M4.45615 8.75537H139.528V135.259H4.45615V8.75537Z" fill="white"/>
</mask>
<g mask="url(#mask1_3_150)">
<path d="M50.6456 59.6994C58.7358 45.668 68.2642 33.7947 77.3137 25.9167C88.2172 16.4262 98.5916 12.7092 104.187 15.9357C110.016 19.2984 112.131 30.8011 109.011 45.9481C106.655 57.3991 101.021 71.0086 93.3408 84.329C85.467 97.9854 76.4508 110.017 67.524 117.821C56.2286 127.697 45.3082 131.271 39.591 127.972C34.0417 124.774 31.92 114.284 34.5817 100.262C36.831 88.4131 42.4755 73.871 50.6422 59.702L50.6456 59.6994Z" stroke="#00D8FF" stroke-width="7.47646"/>
<path d="M50.665 84.3641C42.553 70.3485 37.0282 56.1604 34.7223 44.3839C31.9469 30.1954 33.9093 19.3474 39.4983 16.1104C45.3224 12.738 56.3414 16.65 67.9023 26.9175C76.6435 34.6804 85.6192 46.3575 93.3205 59.664C101.217 73.3072 107.136 87.1294 109.438 98.7615C112.351 113.482 109.993 124.729 104.28 128.038C98.7363 131.248 88.5918 127.849 77.7749 118.539C68.6358 110.673 58.8577 98.5181 50.6643 84.3615L50.665 84.3641Z" stroke="#00D8FF" stroke-width="7.47646"/>
</g>
</svg>
