<svg width="143" height="143" viewBox="0 0 143 143" fill="none" xmlns="http://www.w3.org/2000/svg">
<mask id="mask0_3_171" style="mask-type:luminance" maskUnits="userSpaceOnUse" x="11" y="3" width="121" height="137">
<path d="M11.3137 3.14441H131.72V139.852H11.3137V3.14441Z" fill="white"/>
</mask>
<g mask="url(#mask0_3_171)">
<path d="M22.2437 126.142L11.2793 3.20752H131.753L120.78 126.125L71.4395 139.793L22.2437 126.142Z" fill="#E44D26"/>
</g>
<path d="M111.383 118.298L120.764 13.2609H71.5168V129.349L111.383 118.298Z" fill="#F16529"/>
<path d="M71.4653 28.3369H33.6954L37.7646 73.9319H71.5167V58.8559H51.56L50.1806 43.4171H71.5167V28.3369H71.4653ZM71.5167 97.963L71.4526 97.9801L54.6553 93.4473L53.588 81.4231H38.439L40.5527 105.096L71.4482 113.633L71.5167 113.611V97.963Z" fill="#EBEBEB"/>
<path d="M71.4654 73.9319H90.0386L88.3308 93.4812L71.5082 98.0185V113.705L102.429 105.138L106.571 58.8473H71.5167L71.4654 73.9319ZM108.885 32.3834L109.244 28.3369H71.4568V43.4126H107.886L108.185 40.0238L108.885 32.3834Z" fill="white"/>
</svg>
