<svg width="145" height="145" viewBox="0 0 145 145" fill="none" xmlns="http://www.w3.org/2000/svg">
<mask id="mask0_3_132" style="mask-type:luminance" maskUnits="userSpaceOnUse" x="10" y="3" width="125" height="139">
<path d="M10.9395 3.71753H134.044V141.25H10.9395V3.71753Z" fill="white"/>
</mask>
<g mask="url(#mask0_3_132)">
<path d="M134.026 3.71741H10.9581L21.8169 126.773L72.4921 141.25L123.167 126.773L134.026 3.71741Z" fill="#0277BD"/>
</g>
<path d="M72.4936 14.5776V130.032L113.034 118.45L122.083 14.5776H72.4936Z" fill="#039BE5"/>
<path d="M105.432 32.6735H72.4936V47.1504H90.23L89.144 61.6274H72.4936V76.1047H88.4202L87.3342 92.3916L72.4936 97.4583V112.659L101.089 103.249L103.623 61.6274L105.432 32.6735Z" fill="white"/>
<path d="M72.4935 32.6735V47.1504H40.2786L39.1926 32.6735H72.4935ZM55.8431 61.6274L56.5669 76.1047H72.4935V61.6274H55.8431ZM57.2908 83.343H42.8123L43.8983 103.249L72.4935 112.659V97.4583L57.6529 92.3916L57.2908 83.343Z" fill="#EEEEEE"/>
</svg>
