<svg width="579" height="291" viewBox="0 0 579 291" fill="none" xmlns="http://www.w3.org/2000/svg">
<path d="M578.54 283.394C578.922 282.995 578.908 282.362 578.508 281.98L572.004 275.759C571.605 275.378 570.972 275.392 570.59 275.791C570.209 276.19 570.223 276.823 570.622 277.205L576.403 282.734L570.874 288.516C570.492 288.915 570.506 289.548 570.906 289.93C571.305 290.311 571.938 290.297 572.319 289.898L578.54 283.394ZM0.565699 2.82718C29.6273 7.05063 51.2819 14.7847 68.0835 25.027C84.8796 35.2659 96.8731 48.04 106.578 62.4117C116.294 76.8003 123.707 92.776 131.36 109.445C139.003 126.092 146.879 143.418 157.496 160.382C178.765 194.365 211.004 226.848 274.398 250C337.743 273.135 432.176 286.948 577.84 283.702L577.795 281.703C432.244 284.946 338.095 271.134 275.084 248.122C212.122 225.127 180.232 192.939 159.192 159.321C148.654 142.485 140.83 125.279 133.178 108.61C125.535 91.9624 118.057 75.8382 108.235 61.2925C98.4016 46.7298 86.2105 33.7349 69.1246 23.3193C52.0442 12.9071 30.1193 5.10112 0.853333 0.847973L0.565699 2.82718Z" fill="white"/>
</svg>
