<svg width="806" height="370" viewBox="0 0 806 370" fill="none" xmlns="http://www.w3.org/2000/svg">
<path d="M12.7426 369.967C13.2763 370.109 13.8241 369.791 13.9662 369.257L16.2813 360.56C16.4234 360.027 16.1059 359.479 15.5722 359.337C15.0385 359.195 14.4907 359.512 14.3486 360.046L12.2907 367.777L4.55991 365.719C4.02621 365.577 3.4784 365.894 3.33633 366.428C3.19426 366.962 3.51174 367.509 4.04544 367.651L12.7426 369.967ZM763.211 1.61405C796.839 44.8509 807.943 78.9725 802.335 106.099C796.732 133.197 774.367 153.702 740.073 169.503C705.797 185.297 659.821 196.288 607.421 204.467C555.033 212.644 496.295 218.002 436.527 222.558C317.047 231.667 193.379 237.573 108.446 256.446C66.011 265.875 33.0102 278.586 15.0654 296.732C6.06025 305.838 0.824885 316.335 0.123417 328.458C-0.576731 340.559 3.24638 354.165 12.1346 369.502L13.865 368.499C5.10026 353.375 1.44968 340.16 2.12008 328.574C2.78915 317.01 7.76857 306.955 16.4874 298.138C33.9905 280.439 66.4744 267.821 108.88 258.398C193.63 239.566 317.069 233.671 436.68 224.553C496.457 219.996 555.26 214.633 607.729 206.443C660.185 198.255 706.38 187.23 740.91 171.32C775.423 155.417 798.499 134.529 804.293 106.504C810.081 78.5062 798.536 43.7743 764.789 0.386166L763.211 1.61405Z" fill="white"/>
</svg>
